# Blender v2.79 (sub 0) OBJ File: ''
# www.blender.org
g DamageSphere
v 0.000000 0.282843 -0.282843
v 0.000000 0.153073 -0.369552
v 0.000000 -0.153073 -0.369552
v 0.000000 -0.369552 -0.153073
v 0.058579 0.369552 -0.141421
v 0.108239 0.282843 -0.261313
v 0.141421 0.153073 -0.341421
v 0.153073 -0.000000 -0.369552
v 0.141421 -0.153073 -0.341421
v 0.108239 -0.282843 -0.261313
v 0.058579 -0.369552 -0.141421
v 0.108239 0.369552 -0.108239
v 0.200000 0.282843 -0.200000
v 0.261313 0.153073 -0.261313
v 0.282843 -0.000000 -0.282843
v 0.261313 -0.153073 -0.261313
v 0.200000 -0.282843 -0.200000
v 0.108239 -0.369552 -0.108239
v 0.141421 0.369552 -0.058579
v 0.261313 0.282843 -0.108239
v 0.341421 0.153073 -0.141421
v 0.369552 -0.000000 -0.153073
v 0.341421 -0.153073 -0.141421
v 0.261313 -0.282843 -0.108239
v 0.141421 -0.369552 -0.058579
v 0.153073 0.369552 -0.000000
v 0.282843 0.282843 -0.000000
v 0.369552 0.153073 -0.000000
v 0.400000 -0.000000 -0.000000
v 0.369552 -0.153073 -0.000000
v 0.282843 -0.282843 -0.000000
v 0.153073 -0.369552 -0.000000
v 0.141421 0.369552 0.058579
v 0.261312 0.282843 0.108239
v 0.341421 0.153073 0.141421
v 0.369552 -0.000000 0.153073
v 0.341421 -0.153073 0.141421
v 0.261312 -0.282843 0.108239
v 0.141421 -0.369552 0.058579
v 0.108239 0.369552 0.108239
v 0.200000 0.282843 0.200000
v 0.261312 0.153073 0.261313
v 0.282843 -0.000000 0.282843
v 0.261312 -0.153073 0.261313
v 0.200000 -0.282843 0.200000
v 0.108239 -0.369552 0.108239
v 0.058579 0.369552 0.141421
v 0.108239 0.282843 0.261312
v 0.141421 0.153073 0.341421
v 0.153073 -0.000000 0.369552
v 0.141421 -0.153073 0.341421
v 0.108239 -0.282843 0.261312
v 0.058579 -0.369552 0.141421
v -0.000000 0.369552 0.153073
v -0.000000 0.282843 0.282843
v -0.000000 0.153073 0.369552
v -0.000000 -0.000000 0.400000
v -0.000000 -0.153073 0.369552
v -0.000000 -0.282843 0.282843
v -0.000000 -0.369552 0.153073
v -0.058579 0.369552 0.141421
v -0.108239 0.282843 0.261312
v -0.141421 0.153073 0.341421
v -0.153073 -0.000000 0.369552
v -0.141421 -0.153073 0.341421
v -0.108239 -0.282843 0.261312
v -0.058579 -0.369552 0.141421
v -0.108239 0.369552 0.108239
v -0.200000 0.282843 0.200000
v -0.261313 0.153073 0.261312
v -0.282843 -0.000000 0.282842
v -0.261313 -0.153073 0.261312
v -0.200000 -0.282843 0.200000
v -0.108239 -0.369552 0.108239
v -0.141421 0.369552 0.058579
v -0.261313 0.282843 0.108239
v -0.341421 0.153073 0.141421
v -0.369552 -0.000000 0.153073
v -0.341421 -0.153073 0.141421
v -0.261313 -0.282843 0.108239
v -0.141421 -0.369552 0.058578
v -0.153073 0.369552 -0.000000
v -0.282843 0.282843 -0.000000
v -0.369552 0.153073 -0.000000
v -0.400000 -0.000000 -0.000000
v -0.369552 -0.153073 -0.000000
v -0.282843 -0.282843 -0.000000
v -0.153073 -0.369552 -0.000000
v -0.141421 0.369552 -0.058579
v -0.261312 0.282843 -0.108239
v -0.341421 0.153073 -0.141422
v -0.369552 -0.000000 -0.153074
v -0.341421 -0.153073 -0.141422
v -0.261312 -0.282843 -0.108239
v -0.141421 -0.369552 -0.058579
v -0.108239 0.369552 -0.108239
v -0.200000 0.282843 -0.200000
v -0.261312 0.153073 -0.261313
v -0.282842 -0.000000 -0.282843
v -0.261312 -0.153073 -0.261313
v -0.200000 -0.282843 -0.200000
v -0.108239 -0.369552 -0.108239
v -0.058579 0.369552 -0.141421
v -0.108239 0.282843 -0.261313
v -0.141421 0.153073 -0.341421
v -0.153073 -0.000000 -0.369552
v -0.141421 -0.153073 -0.341421
v -0.108239 -0.282843 -0.261313
v -0.058579 -0.369552 -0.141421
v -0.000000 0.400000 -0.000000
v 0.000000 0.369552 -0.153073
v 0.000000 -0.000000 -0.400000
v 0.000000 -0.282843 -0.282843
v 0.000000 -0.400000 -0.000000
vt 0.882203 0.197647
vt 0.864453 0.153810
vt 0.766089 0.219759
vt 0.811988 0.279908
vt 0.769001 0.381112
vt 0.714307 0.318762
vt 0.680809 0.427716
vt 0.736032 0.488362
vt 0.703892 0.596096
vt 0.652438 0.539283
vt 0.621407 0.649503
vt 0.664114 0.699278
vt 0.601819 0.787524
vt 0.577185 0.752752
vt 0.496084 0.832816
vt 0.996084 0.167184
vt 0.858223 0.106487
vt 0.709406 0.157468
vt 0.650611 0.261254
vt 0.620951 0.376113
vt 0.599304 0.493804
vt 0.577981 0.611607
vt 0.549730 0.726970
vt 0.554252 0.342088
vt 0.543264 0.465344
vt 0.533213 0.588750
vt 0.520510 0.711732
vt 0.887950 0.061311
vt 0.619667 0.102725
vt 0.571419 0.219825
vt 1.028988 0.043396
vt 0.464413 0.083976
vt 0.478448 0.208461
vt 0.482670 0.333307
vt 0.485263 0.458212
vt 0.487588 0.583127
vt 0.490490 0.708021
vt 0.427753 0.473610
vt 0.442173 0.595320
vt 0.460654 0.716087
vt 1.123167 0.077111
vt 0.332684 0.121019
vt 0.389263 0.232442
vt 0.412338 0.352130
vt 0.028988 0.043396
vt 0.123167 0.077111
vt 1.133756 0.124250
vt 0.259545 0.180458
vt 0.316388 0.281449
vt 0.348229 0.393708
vt 0.372798 0.509008
vt 0.397898 0.624089
vt 0.431977 0.735393
vt 0.133756 0.124250
vt 0.354883 0.666799
vt 0.405433 0.764722
vt 0.121991 0.170674
vt 0.208339 0.242654
vt 0.256840 0.341832
vt 0.290487 0.449625
vt 0.320542 0.559391
vt 1.121991 0.170674
vt 0.101819 0.212476
vt 0.164113 0.300722
vt 0.203892 0.403904
vt 0.236032 0.511638
vt 0.269001 0.618888
vt 0.311988 0.720091
vt 0.382203 0.802353
vt 1.101819 0.212476
vt 0.364453 0.846191
vt 1.077185 0.247248
vt 0.121407 0.350497
vt 0.152438 0.460717
vt 0.180809 0.572284
vt 0.214307 0.681238
vt 0.266089 0.780241
vt 0.077185 0.247248
vt 0.077980 0.388393
vt 0.099304 0.506196
vt 0.120950 0.623887
vt 0.150611 0.738746
vt 0.209406 0.842532
vt 0.358223 0.893513
vt 0.049730 0.273030
vt 1.049730 0.273030
vt 0.020510 0.288268
vt 0.033213 0.411250
vt 0.043263 0.534656
vt 0.054252 0.657912
vt 0.071419 0.780175
vt 0.119667 0.897275
vt 0.387950 0.938689
vt 1.020510 0.288268
vt 1.043263 0.534656
vt 0.985263 0.541788
vt 0.982669 0.666693
vt 1.054252 0.657912
vt 1.071419 0.780175
vt 0.978448 0.791539
vt 0.964412 0.916024
vt 1.119667 0.897275
vt 0.528988 0.956604
vt 0.990490 0.291979
vt 1.033213 0.411250
vt 0.987587 0.416873
vt 1.387950 0.938689
vt 0.960654 0.283913
vt 0.942173 0.404680
vt 0.927753 0.526390
vt 0.912338 0.647870
vt 0.889263 0.767558
vt 0.832684 0.878981
vt 0.623167 0.922889
vt 0.848229 0.606292
vt 0.816388 0.718551
vt 0.759545 0.819542
vt 0.633756 0.875750
vt 0.931977 0.264607
vt 0.897898 0.375911
vt 0.872798 0.490992
vt 0.905433 0.235278
vt 0.854883 0.333201
vt 0.820542 0.440609
vt 0.790487 0.550375
vt 0.756840 0.658168
vt 0.708338 0.757346
vt 0.621992 0.829326
vn 0.0000 0.9152 0.4031
vn -0.1542 0.9152 0.3724
vn -0.2751 0.6952 0.6641
vn 0.0000 0.6952 0.7188
vn 0.0000 0.3743 0.9273
vn -0.3548 0.3743 0.8567
vn -0.3827 0.0000 0.9239
vn 0.0000 0.0000 1.0000
vn 0.0000 -0.3743 0.9273
vn -0.3548 -0.3743 0.8567
vn -0.2751 -0.6952 0.6641
vn 0.0000 -0.6952 0.7188
vn 0.0000 -0.9152 0.4031
vn -0.1542 -0.9152 0.3724
vn 0.0000 -1.0000 0.0000
vn 0.0000 1.0000 0.0000
vn -0.2850 0.9152 0.2850
vn -0.5083 0.6952 0.5083
vn -0.6557 0.3743 0.6557
vn -0.7071 0.0000 0.7071
vn -0.6557 -0.3743 0.6557
vn -0.5083 -0.6952 0.5083
vn -0.2850 -0.9152 0.2850
vn -0.9239 0.0000 0.3827
vn -0.8567 -0.3743 0.3548
vn -0.6641 -0.6952 0.2751
vn -0.3724 -0.9152 0.1542
vn -0.3724 0.9152 0.1542
vn -0.6641 0.6952 0.2751
vn -0.8567 0.3743 0.3548
vn -0.4031 0.9152 0.0000
vn -0.7188 0.6952 0.0000
vn -0.9273 0.3743 0.0000
vn -1.0000 0.0000 0.0000
vn -0.9273 -0.3743 0.0000
vn -0.7188 -0.6952 0.0000
vn -0.4031 -0.9152 0.0000
vn -0.8567 -0.3743 -0.3548
vn -0.6641 -0.6952 -0.2751
vn -0.3724 -0.9152 -0.1542
vn -0.3724 0.9152 -0.1542
vn -0.6641 0.6952 -0.2751
vn -0.8567 0.3743 -0.3548
vn -0.9239 0.0000 -0.3827
vn -0.2850 0.9152 -0.2850
vn -0.5083 0.6952 -0.5083
vn -0.6557 0.3743 -0.6557
vn -0.7071 0.0000 -0.7071
vn -0.6557 -0.3743 -0.6557
vn -0.5083 -0.6952 -0.5083
vn -0.2850 -0.9152 -0.2850
vn -0.2751 -0.6952 -0.6641
vn -0.1542 -0.9152 -0.3724
vn -0.1542 0.9152 -0.3724
vn -0.2751 0.6952 -0.6641
vn -0.3548 0.3743 -0.8567
vn -0.3827 0.0000 -0.9239
vn -0.3548 -0.3743 -0.8567
vn 0.0000 0.9152 -0.4031
vn 0.0000 0.6952 -0.7188
vn 0.0000 0.3743 -0.9273
vn 0.0000 0.0000 -1.0000
vn 0.0000 -0.3743 -0.9273
vn 0.0000 -0.6952 -0.7188
vn 0.0000 -0.9152 -0.4031
vn 0.1542 -0.9152 -0.3724
vn 0.1542 0.9152 -0.3724
vn 0.2751 0.6952 -0.6641
vn 0.3548 0.3743 -0.8567
vn 0.3827 0.0000 -0.9239
vn 0.3548 -0.3743 -0.8567
vn 0.2751 -0.6952 -0.6641
vn 0.5083 0.6952 -0.5083
vn 0.6557 0.3743 -0.6557
vn 0.7071 0.0000 -0.7071
vn 0.6557 -0.3743 -0.6557
vn 0.5083 -0.6952 -0.5083
vn 0.2850 -0.9152 -0.2850
vn 0.2850 0.9152 -0.2850
vn 0.3724 0.9152 -0.1542
vn 0.6641 0.6952 -0.2751
vn 0.8567 0.3743 -0.3548
vn 0.9239 0.0000 -0.3827
vn 0.8567 -0.3743 -0.3548
vn 0.6641 -0.6952 -0.2751
vn 0.3724 -0.9152 -0.1542
vn 0.9273 0.3743 0.0000
vn 1.0000 0.0000 0.0000
vn 0.9273 -0.3743 0.0000
vn 0.7188 -0.6952 0.0000
vn 0.4031 -0.9152 0.0000
vn 0.4031 0.9152 0.0000
vn 0.7188 0.6952 0.0000
vn 0.3724 0.9152 0.1542
vn 0.6641 0.6952 0.2751
vn 0.8567 0.3743 0.3548
vn 0.9239 0.0000 0.3827
vn 0.8567 -0.3743 0.3548
vn 0.6641 -0.6952 0.2751
vn 0.3724 -0.9152 0.1542
vn 0.7071 0.0000 0.7071
vn 0.6557 -0.3743 0.6557
vn 0.5083 -0.6952 0.5083
vn 0.2850 -0.9152 0.2850
vn 0.2850 0.9152 0.2850
vn 0.5083 0.6952 0.5083
vn 0.6557 0.3743 0.6557
vn 0.1542 0.9152 0.3724
vn 0.2751 0.6952 0.6641
vn 0.3548 0.3743 0.8567
vn 0.3827 0.0000 0.9239
vn 0.3548 -0.3743 0.8567
vn 0.2751 -0.6952 0.6641
vn 0.1542 -0.9152 0.3724
s 1
f 4/1/1 11/2/2 10/3/3 113/4/4
f 3/5/5 9/6/6 8/7/7 112/8/8
f 2/9/9 7/10/10 6/11/11 1/12/12
f 111/13/13 5/14/14 110/15/15
f 114/16/16 11/2/2 4/1/1
f 113/4/4 10/3/3 9/6/6 3/5/5
f 112/8/8 8/7/7 7/10/10 2/9/9
f 1/12/12 6/11/11 5/14/14 111/13/13
f 114/16/16 18/17/17 11/2/2
f 10/3/3 17/18/18 16/19/19 9/6/6
f 8/7/7 15/20/20 14/21/21 7/10/10
f 6/11/11 13/22/22 12/23/23 5/14/14
f 11/2/2 18/17/17 17/18/18 10/3/3
f 9/6/6 16/19/19 15/20/20 8/7/7
f 7/10/10 14/21/21 13/22/22 6/11/11
f 5/14/14 12/23/23 110/15/15
f 15/20/20 22/24/24 21/25/25 14/21/21
f 13/22/22 20/26/26 19/27/27 12/23/23
f 18/17/17 25/28/28 24/29/29 17/18/18
f 16/19/19 23/30/30 22/24/24 15/20/20
f 14/21/21 21/25/25 20/26/26 13/22/22
f 12/23/23 19/27/27 110/15/15
f 114/16/16 25/28/28 18/17/17
f 17/18/18 24/29/29 23/30/30 16/19/19
f 25/28/28 32/31/31 31/32/32 24/29/29
f 23/30/30 30/33/33 29/34/34 22/24/24
f 21/25/25 28/35/35 27/36/36 20/26/26
f 19/27/27 26/37/37 110/15/15
f 114/16/16 32/31/31 25/28/28
f 24/29/29 31/32/32 30/33/33 23/30/30
f 22/24/24 29/34/34 28/35/35 21/25/25
f 20/26/26 27/36/36 26/37/37 19/27/27
f 28/35/35 35/38/38 34/39/39 27/36/36
f 26/37/37 33/40/40 110/15/15
f 114/16/16 39/41/41 32/31/31
f 31/32/32 38/42/42 37/43/43 30/33/33
f 29/34/34 36/44/44 35/38/38 28/35/35
f 27/36/36 34/39/39 33/40/40 26/37/37
f 32/45/31 39/46/41 38/42/42 31/32/32
f 30/33/33 37/43/43 36/44/44 29/34/34
f 114/16/16 46/47/45 39/41/41
f 38/42/42 45/48/46 44/49/47 37/43/43
f 36/44/44 43/50/48 42/51/49 35/38/38
f 34/39/39 41/52/50 40/53/51 33/40/40
f 39/46/41 46/54/45 45/48/46 38/42/42
f 37/43/43 44/49/47 43/50/48 36/44/44
f 35/38/38 42/51/49 41/52/50 34/39/39
f 33/40/40 40/53/51 110/15/15
f 41/52/50 48/55/52 47/56/53 40/53/51
f 46/54/45 53/57/54 52/58/55 45/48/46
f 44/49/47 51/59/56 50/60/57 43/50/48
f 42/51/49 49/61/58 48/55/52 41/52/50
f 40/53/51 47/56/53 110/15/15
f 114/16/16 53/62/54 46/47/45
f 45/48/46 52/58/55 51/59/56 44/49/47
f 43/50/48 50/60/57 49/61/58 42/51/49
f 53/57/54 60/63/59 59/64/60 52/58/55
f 51/59/56 58/65/61 57/66/62 50/60/57
f 49/61/58 56/67/63 55/68/64 48/55/52
f 47/56/53 54/69/65 110/15/15
f 114/16/16 60/70/59 53/62/54
f 52/58/55 59/64/60 58/65/61 51/59/56
f 50/60/57 57/66/62 56/67/63 49/61/58
f 48/55/52 55/68/64 54/69/65 47/56/53
f 54/69/65 61/71/66 110/15/15
f 114/16/16 67/72/67 60/70/59
f 59/64/60 66/73/68 65/74/69 58/65/61
f 57/66/62 64/75/70 63/76/71 56/67/63
f 55/68/64 62/77/72 61/71/66 54/69/65
f 60/63/59 67/78/67 66/73/68 59/64/60
f 58/65/61 65/74/69 64/75/70 57/66/62
f 56/67/63 63/76/71 62/77/72 55/68/64
f 66/73/68 73/79/73 72/80/74 65/74/69
f 64/75/70 71/81/75 70/82/76 63/76/71
f 62/77/72 69/83/77 68/84/78 61/71/66
f 67/78/67 74/85/79 73/79/73 66/73/68
f 65/74/69 72/80/74 71/81/75 64/75/70
f 63/76/71 70/82/76 69/83/77 62/77/72
f 61/71/66 68/84/78 110/15/15
f 114/16/16 74/86/79 67/72/67
f 74/85/79 81/87/80 80/88/81 73/79/73
f 72/80/74 79/89/82 78/90/83 71/81/75
f 70/82/76 77/91/84 76/92/85 69/83/77
f 68/84/78 75/93/86 110/15/15
f 114/16/16 81/94/80 74/86/79
f 73/79/73 80/88/81 79/89/82 72/80/74
f 71/81/75 78/90/83 77/91/84 70/82/76
f 69/83/77 76/92/85 75/93/86 68/84/78
f 79/95/82 86/96/87 85/97/88 78/98/83
f 77/99/84 84/100/89 83/101/90 76/102/85
f 75/93/86 82/103/91 110/15/15
f 114/16/16 88/104/92 81/94/80
f 80/105/81 87/106/93 86/96/87 79/95/82
f 78/98/83 85/97/88 84/100/89 77/99/84
f 76/102/85 83/101/90 82/103/91 75/107/86
f 81/94/80 88/104/92 87/106/93 80/105/81
f 114/16/16 95/108/94 88/104/92
f 87/106/93 94/109/95 93/110/96 86/96/87
f 85/97/88 92/111/97 91/112/98 84/100/89
f 83/101/90 90/113/99 89/114/100 82/103/91
f 88/104/92 95/108/94 94/109/95 87/106/93
f 86/96/87 93/110/96 92/111/97 85/97/88
f 84/100/89 91/112/98 90/113/99 83/101/90
f 82/103/91 89/114/100 110/15/15
f 92/111/97 99/115/101 98/116/102 91/112/98
f 90/113/99 97/117/103 96/118/104 89/114/100
f 95/108/94 102/119/105 101/120/106 94/109/95
f 93/110/96 100/121/107 99/115/101 92/111/97
f 91/112/98 98/116/102 97/117/103 90/113/99
f 89/114/100 96/118/104 110/15/15
f 114/16/16 102/119/105 95/108/94
f 94/109/95 101/120/106 100/121/107 93/110/96
f 102/119/105 109/122/108 108/123/109 101/120/106
f 100/121/107 107/124/110 106/125/111 99/115/101
f 98/116/102 105/126/112 104/127/113 97/117/103
f 96/118/104 103/128/114 110/15/15
f 114/16/16 109/122/108 102/119/105
f 101/120/106 108/123/109 107/124/110 100/121/107
f 99/115/101 106/125/111 105/126/112 98/116/102
f 97/117/103 104/127/113 103/128/114 96/118/104
f 105/126/112 2/9/9 1/12/12 104/127/113
f 103/128/114 111/13/13 110/15/15
f 114/16/16 4/1/1 109/122/108
f 108/123/109 113/4/4 3/5/5 107/124/110
f 106/125/111 112/8/8 2/9/9 105/126/112
f 104/127/113 1/12/12 111/13/13 103/128/114
f 109/122/108 4/1/1 113/4/4 108/123/109
f 107/124/110 3/5/5 112/8/8 106/125/111
