# Blender v2.79 (sub 0) OBJ File: 'CheckMarkAndCross.blend'
# www.blender.org
g Cross
v -0.156546 0.466647 0.054798
v -0.002826 0.622901 0.054798
v -0.000292 0.312927 0.054798
v 0.153429 0.469181 0.054798
v -0.156546 0.466647 -0.054798
v -0.002826 0.622901 -0.054798
v 0.153429 0.469181 -0.054798
v -0.000292 0.312927 -0.054798
v 0.467089 0.160608 0.054798
v 0.313369 0.004354 0.054798
v 0.467089 0.160608 -0.054798
v 0.313369 0.004354 -0.054798
v -0.465119 0.152987 0.054798
v -0.308865 -0.000733 0.054798
v -0.465119 0.152987 -0.054798
v -0.308865 -0.000733 -0.054798
v -0.470206 0.775220 0.054798
v -0.316486 0.931475 0.054798
v -0.470206 0.775220 -0.054798
v -0.316486 0.931475 -0.054798
v 0.462002 0.782842 0.054798
v 0.305747 0.936562 0.054798
v 0.462002 0.782842 -0.054798
v 0.305747 0.936562 -0.054798
vt 0.583113 0.583113
vt 0.583113 0.416887
vt 0.416888 0.416887
vt 0.416887 0.583112
vt 0.582988 0.417012
vt 0.417012 0.417012
vt 0.417012 0.582988
vt 0.582988 0.582988
vt 0.583112 0.916787
vt 0.666225 0.916788
vt 0.666225 0.583113
vt 0.083838 0.417012
vt 0.083838 0.582988
vt 0.666225 0.416887
vt 0.666225 0.083213
vt 0.583113 0.083213
vt 0.583113 0.666225
vt 0.916787 0.666225
vt 0.916787 0.583112
vt 0.999900 0.583113
vt 0.999900 0.416887
vt 0.916787 0.416887
vt 0.916787 0.333775
vt 0.583113 0.333775
vt 0.916162 0.582988
vt 0.916162 0.417012
vt 0.416887 0.916787
vt 0.416887 0.999900
vt 0.583112 0.999900
vt 0.582988 0.083838
vt 0.417012 0.083838
vt 0.333775 0.583113
vt 0.333775 0.916787
vt 0.083213 0.416887
vt 0.000100 0.416887
vt 0.000100 0.583112
vt 0.083213 0.583112
vt 0.083213 0.666225
vt 0.416887 0.666225
vt 0.416888 0.333775
vt 0.083213 0.333775
vt 0.583113 0.000100
vt 0.416888 0.000100
vt 0.416888 0.083212
vt 0.417012 0.916162
vt 0.582988 0.916162
vt 0.333775 0.083212
vt 0.333775 0.416887
vn 0.0000 -0.0000 1.0000
vn -0.0000 0.0000 -1.0000
vn 0.7129 -0.7013 0.0000
vn -0.7013 -0.7129 0.0000
vn 0.7013 0.7129 0.0000
vn -0.7129 0.7013 0.0000
s off
f 3/1/1 4/2/1 2/3/1 1/4/1
f 8/5/2 5/6/2 6/7/2 7/8/2
f 3/1/3 14/9/3 16/10/3 8/11/3
f 5/6/2 19/12/2 20/13/2 6/7/2
f 7/14/3 23/15/3 21/16/3 4/2/3
f 8/17/4 12/18/4 10/19/4 3/1/4
f 10/19/3 12/20/3 11/21/3 9/22/3
f 4/2/5 9/22/5 11/23/5 7/24/5
f 7/8/2 11/25/2 12/26/2 8/5/2
f 3/1/1 10/19/1 9/22/1 4/2/1
f 13/27/4 15/28/4 16/29/4 14/9/4
f 8/5/2 16/30/2 15/31/2 5/6/2
f 1/4/1 13/27/1 14/9/1 3/1/1
f 5/32/6 15/33/6 13/27/6 1/4/6
f 18/34/6 20/35/6 19/36/6 17/37/6
f 2/3/1 18/34/1 17/37/1 1/4/1
f 1/4/4 17/37/4 19/38/4 5/39/4
f 6/40/5 20/41/5 18/34/5 2/3/5
f 21/16/5 23/42/5 24/43/5 22/44/5
f 6/7/2 24/45/2 23/46/2 7/8/2
f 4/2/1 21/16/1 22/44/1 2/3/1
f 2/3/6 22/44/6 24/47/6 6/48/6
