# Blender v2.79 (sub 0) OBJ File: 'Arrow.blend'
# www.blender.org
g Arrow
v 0.000000 -0.000000 -0.006559
v 0.002510 -0.000000 -0.006060
v 0.004638 -0.000000 -0.004638
v 0.006060 -0.000000 -0.002510
v 0.006559 -0.000000 0.000000
v 0.006060 -0.000000 0.002510
v 0.004638 -0.000000 0.004638
v 0.002510 -0.000000 0.006060
v 0.000000 -0.000000 0.006559
v -0.002510 -0.000000 0.006060
v -0.004638 -0.000000 0.004638
v -0.006060 -0.000000 0.002510
v -0.006559 -0.000000 0.000000
v -0.006060 -0.000000 -0.002510
v -0.004638 -0.000000 -0.004638
v -0.002510 -0.000000 -0.006060
v 0.000000 0.167727 -0.006559
v 0.002510 0.167727 -0.006060
v 0.004638 0.167727 -0.004638
v 0.006060 0.167727 -0.002510
v 0.006559 0.167727 0.000000
v 0.006060 0.167727 0.002510
v 0.004638 0.167727 0.004638
v 0.002510 0.167727 0.006060
v 0.000000 0.167727 0.006559
v -0.002510 0.167727 0.006060
v -0.004638 0.167727 0.004638
v -0.006060 0.167727 0.002510
v -0.006559 0.167727 0.000000
v -0.006060 0.167727 -0.002510
v -0.004638 0.167727 -0.004638
v -0.002510 0.167727 -0.006060
v 0.000000 0.220000 0.000000
v 0.000000 0.171988 -0.021235
v 0.000000 0.169681 -0.019929
v 0.007627 0.169681 -0.018412
v 0.008126 0.171988 -0.019619
v 0.014092 0.169681 -0.014092
v 0.015016 0.171988 -0.015016
v 0.018412 0.169681 -0.007627
v 0.019619 0.171988 -0.008126
v 0.019929 0.169681 0.000000
v 0.021235 0.171988 0.000000
v 0.018412 0.169681 0.007627
v 0.019619 0.171988 0.008126
v 0.014092 0.169681 0.014092
v 0.015016 0.171988 0.015016
v 0.007627 0.169681 0.018412
v 0.008126 0.171988 0.019619
v 0.000000 0.169681 0.019929
v 0.000000 0.171988 0.021235
v -0.007627 0.169681 0.018412
v -0.008126 0.171988 0.019619
v -0.014092 0.169681 0.014092
v -0.015016 0.171988 0.015016
v -0.018412 0.169681 0.007627
v -0.019619 0.171988 0.008126
v -0.019929 0.169681 0.000000
v -0.021235 0.171988 0.000000
v -0.018412 0.169681 -0.007627
v -0.019619 0.171988 -0.008126
v -0.014092 0.169681 -0.014092
v -0.015016 0.171988 -0.015016
v -0.007627 0.169681 -0.018412
v -0.008126 0.171988 -0.019619
vt 0.796693 0.156384
vt 0.946333 0.038618
vt 0.972660 0.110229
vt 0.805358 0.179952
vt 0.751019 0.143758
vt 0.807551 0.000256
vt 0.888355 0.000000
vt 0.777612 0.143674
vt 0.067931 0.231746
vt 0.500838 1.000000
vt 0.016131 0.328479
vt 0.692017 0.180310
vt 0.628277 0.111319
vt 0.716224 0.039346
vt 0.720962 0.156624
vt 0.654252 0.244628
vt 0.513527 0.306747
vt 0.557099 0.205218
vt 0.668592 0.211213
vt 0.422077 0.020141
vt 0.339175 0.025721
vt 0.651180 0.275467
vt 0.504193 0.400450
vt 0.678926 0.311745
vt 0.588498 0.510679
vt 0.530520 0.472061
vt 0.659844 0.299035
vt 0.590667 0.560031
vt 1.000000 0.966854
vt 0.528889 0.518883
vt 0.705519 0.311660
vt 0.669302 0.510423
vt 0.764520 0.275108
vt 0.848576 0.399360
vt 0.760629 0.471333
vt 0.735576 0.298795
vt 0.867786 0.441418
vt 0.774076 0.518107
vt 0.963326 0.203932
vt 0.802286 0.210791
vt 0.787946 0.244205
vt 0.919754 0.305461
vt 0.599436 0.000100
vt 0.783170 0.076205
vt 0.923795 0.216830
vt 0.999900 0.400564
vt 0.999900 0.599437
vt 0.923795 0.783171
vt 0.783171 0.923795
vt 0.599436 0.999900
vt 0.400564 0.999900
vt 0.216829 0.923795
vt 0.076205 0.783170
vt 0.000100 0.599437
vt 0.000100 0.400564
vt 0.076205 0.216830
vt 0.216830 0.076205
vt 0.400564 0.000100
vt 0.364701 0.000000
vt 0.364701 1.000000
vt 0.299729 1.000000
vt 0.299728 0.000000
vt 0.435027 0.000000
vt 0.435027 1.000000
vt 0.500000 0.000000
vt 0.500000 1.000000
vt 0.549728 0.000000
vt 0.549728 1.000000
vt 0.614701 0.000000
vt 0.614701 1.000000
vt 0.685027 0.000000
vt 0.685027 1.000000
vt 0.750000 0.000000
vt 0.750000 1.000000
vt 0.049728 0.000000
vt 0.049729 1.000000
vt 0.000001 1.000000
vt 0.000000 0.000000
vt 0.114701 0.000000
vt 0.114701 1.000000
vt 0.185027 0.000000
vt 0.185028 1.000000
vt 0.250000 0.000000
vt 0.250000 1.000000
vt 0.299728 0.000000
vt 0.299728 1.000000
vt 0.814973 0.000000
vt 0.814973 1.000000
vt 0.750000 1.000000
vt 0.750000 0.000000
vt 0.885299 0.000000
vt 0.885299 1.000000
vt 0.950272 0.000000
vt 0.950272 1.000000
vt 1.000000 0.000000
vt 1.000000 1.000000
vt 0.990055 0.233185
vt 1.000000 0.133342
vt 0.021993 0.480168
vt 0.000000 0.415713
vt 0.147513 0.140241
vt 0.242761 0.067895
vt 0.478846 0.052003
vt 0.500838 0.116458
vt 0.676765 0.559758
vt 0.943627 0.341367
vt 0.971949 0.057038
vt 0.003367 0.371247
vt 0.018506 0.289378
vt 0.067120 0.198593
vt 0.141808 0.112715
vt 0.231199 0.044817
vt 0.321685 0.005237
vt 0.399489 0.000000
vt 0.452766 0.029903
vt 0.500838 0.442579
vn -0.5070 -0.6970 -0.5070
vn -0.4243 -0.7999 -0.4243
vn -0.2297 -0.7999 -0.5544
vn -0.2744 -0.6970 -0.6624
vn -0.7170 -0.6970 0.0000
vn -0.6001 -0.7999 0.0000
vn -0.5544 -0.7999 -0.2297
vn -0.6624 -0.6970 -0.2744
vn -0.9989 -0.0468 0.0000
vn 0.0000 1.0000 0.0000
vn -0.9228 -0.0468 -0.3822
vn -0.5070 -0.6970 0.5070
vn -0.4243 -0.7999 0.4243
vn -0.5544 -0.7999 0.2297
vn -0.6624 -0.6970 0.2744
vn 0.0000 -0.6970 0.7170
vn 0.0000 -0.7999 0.6001
vn -0.2297 -0.7999 0.5544
vn -0.2744 -0.6970 0.6624
vn 0.0000 -0.0468 0.9989
vn -0.3822 -0.0468 0.9228
vn 0.2744 -0.6970 0.6624
vn 0.2297 -0.7999 0.5544
vn 0.6624 -0.6970 0.2744
vn 0.5544 -0.7999 0.2297
vn 0.4243 -0.7999 0.4243
vn 0.5070 -0.6970 0.5070
vn 0.9228 -0.0468 0.3822
vn 0.7063 -0.0468 0.7063
vn 0.7170 -0.6970 0.0000
vn 0.6001 -0.7999 0.0000
vn 0.5070 -0.6970 -0.5070
vn 0.4243 -0.7999 -0.4243
vn 0.5544 -0.7999 -0.2297
vn 0.6624 -0.6970 -0.2744
vn 0.7063 -0.0468 -0.7063
vn 0.9228 -0.0468 -0.3822
vn 0.0000 -0.7999 -0.6001
vn 0.0000 -0.6970 -0.7170
vn 0.2744 -0.6970 -0.6624
vn 0.2297 -0.7999 -0.5544
vn 0.0000 -0.6657 -0.7462
vn 0.2855 -0.6657 -0.6894
vn 0.5276 -0.6657 -0.5276
vn 0.6894 -0.6657 -0.2855
vn 0.7462 -0.6657 0.0000
vn 0.6894 -0.6657 0.2855
vn 0.5276 -0.6657 0.5276
vn 0.2855 -0.6657 0.6894
vn 0.0000 -0.6657 0.7462
vn -0.2855 -0.6657 0.6894
vn -0.5276 -0.6657 0.5276
vn -0.6894 -0.6657 0.2855
vn -0.7462 -0.6657 0.0000
vn -0.6894 -0.6657 -0.2855
vn -0.5276 -0.6657 -0.5276
vn -0.2855 -0.6657 -0.6894
vn 0.0000 -0.0468 -0.9989
vn -0.3822 -0.0468 -0.9228
vn -0.7063 -0.0468 -0.7063
vn -0.9228 -0.0468 0.3822
vn -0.7063 -0.0468 0.7063
vn 0.3822 -0.0468 0.9228
vn 0.9989 -0.0468 0.0000
vn 0.3822 -0.0468 -0.9228
s 1
f 31/1/1 62/2/2 64/3/3 32/4/4
f 29/5/5 58/6/6 60/7/7 30/8/8
f 59/9/9 33/10/10 61/11/11
f 27/12/12 54/13/13 56/14/14 28/15/15
f 25/16/16 50/17/17 52/18/18 26/19/19
f 51/20/20 33/10/10 53/21/21
f 24/22/22 48/23/23 50/17/17 25/16/16
f 22/24/24 44/25/25 46/26/26 23/27/27
f 45/28/28 33/29/10 47/30/29
f 21/31/30 42/32/31 44/25/25 22/24/24
f 19/33/32 38/34/33 40/35/34 20/36/35
f 39/37/36 33/29/10 41/38/37
f 32/4/4 64/3/3 35/39/38 17/40/39
f 18/41/40 36/42/41 38/34/33 19/33/32
f 1/43/42 2/44/43 3/45/44 4/46/45 5/47/46 6/48/47 7/49/48 8/50/49 9/51/50 10/52/51 11/53/52 12/54/53 13/55/54 14/56/55 15/57/56 16/58/57
f 16/59/57 32/60/4 17/61/39 1/62/42
f 15/63/56 31/64/1 32/60/4 16/59/57
f 14/65/55 30/66/8 31/64/1 15/63/56
f 13/67/54 29/68/5 30/66/8 14/65/55
f 12/69/53 28/70/15 29/68/5 13/67/54
f 11/71/52 27/72/12 28/70/15 12/69/53
f 10/73/51 26/74/19 27/72/12 11/71/52
f 9/75/50 25/76/16 26/77/19 10/78/51
f 8/79/49 24/80/22 25/76/16 9/75/50
f 7/81/48 23/82/27 24/80/22 8/79/49
f 6/83/47 22/84/24 23/82/27 7/81/48
f 5/85/46 21/86/30 22/84/24 6/83/47
f 4/87/45 20/88/35 21/89/30 5/90/46
f 3/91/44 19/92/32 20/88/35 4/87/45
f 2/93/43 18/94/40 19/92/32 3/91/44
f 1/95/42 17/96/39 18/94/40 2/93/43
f 33/29/10 34/97/58 65/98/59
f 33/10/10 65/99/59 63/100/60
f 63/100/60 61/11/11 33/10/10
f 30/8/8 60/7/7 62/2/2 31/1/1
f 33/10/10 59/9/9 57/101/61
f 57/101/61 55/102/62 33/10/10
f 53/21/21 33/10/10 55/102/62
f 26/19/19 52/18/18 54/13/13 27/12/12
f 33/10/10 51/20/20 49/103/63
f 49/103/63 47/104/29 33/10/10
f 23/27/27 46/26/26 48/23/23 24/22/22
f 33/29/10 45/28/28 43/105/64
f 43/105/64 41/38/37 33/29/10
f 20/36/35 40/35/34 42/32/31 21/31/30
f 39/37/36 37/106/65 33/29/10
f 34/97/58 33/29/10 37/106/65
f 28/15/15 56/14/14 58/6/6 29/5/5
f 65/98/59 34/97/58 35/39/38 64/3/3
f 63/107/60 65/98/59 64/3/3 62/2/2
f 61/11/11 63/100/60 62/108/2 60/109/7
f 59/9/9 61/11/11 60/109/7 58/110/6
f 57/101/61 59/9/9 58/110/6 56/111/14
f 55/102/62 57/101/61 56/111/14 54/112/13
f 53/21/21 55/102/62 54/112/13 52/113/18
f 51/20/20 53/21/21 52/113/18 50/114/17
f 49/103/63 51/20/20 50/114/17 48/115/23
f 47/30/29 49/116/63 48/23/23 46/26/26
f 45/28/28 47/30/29 46/26/26 44/25/25
f 43/105/64 45/28/28 44/25/25 42/32/31
f 41/38/37 43/105/64 42/32/31 40/35/34
f 39/37/36 41/38/37 40/35/34 38/34/33
f 37/106/65 39/37/36 38/34/33 36/42/41
f 34/97/58 37/106/65 36/42/41 35/39/38
f 17/40/39 35/39/38 36/42/41 18/41/40
