# Blender v2.79 (sub 0) OBJ File: 'CheckMarkAndCross.blend'
# www.blender.org
g Checkmark
v -0.156546 0.158794 0.054798
v -0.002826 0.315049 0.054798
v -0.156546 0.158794 -0.054798
v -0.002826 0.315049 -0.054798
v -0.000292 0.005074 0.054798
v 0.153429 0.161328 0.054798
v -0.000292 0.005074 -0.054798
v 0.153429 0.161328 -0.054798
v -0.374016 0.372737 -0.054798
v -0.374016 0.372737 0.054798
v -0.220296 0.528992 0.054798
v -0.220296 0.528992 -0.054798
v 0.468195 0.793835 0.054798
v 0.468195 0.793835 -0.054798
v 0.624450 0.640115 -0.054798
v 0.624450 0.640115 0.054798
vt 0.373582 0.296233
vt 0.373582 0.394951
vt 0.098799 0.394950
vt 0.098799 0.296233
vt 0.373794 0.097405
vt 0.373795 0.294801
vt 0.571191 0.294801
vt 0.571191 0.097405
vt 0.669733 0.098799
vt 0.669733 0.296233
vt 0.571016 0.296233
vt 0.571016 0.098799
vt 0.373582 0.098799
vt 0.373582 0.000082
vt 0.571016 0.000082
vt 0.274865 0.296233
vt 0.373582 0.901201
vt 0.274865 0.901201
vt 0.098799 0.098799
vt 0.000082 0.296233
vt 0.000082 0.098799
vt 0.098799 0.000082
vt 0.099064 0.097405
vt 0.099064 0.294801
vt 0.571016 0.999918
vt 0.373582 0.999918
vt 0.571016 0.901201
vt 0.373795 0.899654
vt 0.571191 0.899654
vt 0.669733 0.901201
vn 0.7013 0.7129 -0.0000
vn -0.0000 0.0000 -1.0000
vn 0.7129 -0.7013 -0.0000
vn 0.0000 -0.0000 1.0000
vn -0.7013 -0.7129 0.0000
vn -0.7129 0.7013 0.0000
s off
f 2/1/1 4/2/1 12/3/1 11/4/1
f 3/5/2 4/6/2 8/7/2 7/8/2
f 7/9/3 8/10/3 6/11/3 5/12/3
f 5/12/4 6/11/4 2/1/4 1/13/4
f 3/14/5 7/15/5 5/12/5 1/13/5
f 4/16/6 2/1/6 13/17/6 14/18/6
f 10/19/6 11/4/6 12/20/6 9/21/6
f 3/14/5 1/13/5 10/19/5 9/22/5
f 4/6/2 3/5/2 9/23/2 12/24/2
f 1/13/4 2/1/4 11/4/4 10/19/4
f 15/25/1 14/26/1 13/17/1 16/27/1
f 2/1/4 6/11/4 16/27/4 13/17/4
f 8/7/2 4/6/2 14/28/2 15/29/2
f 6/11/3 8/10/3 15/30/3 16/27/3
